# xmcd
#
# Track frame offsets:
#	180
#	16154
#	31350
#	46939
#	61968
#	78070
#	96887
#	108258
#	124421
#	140810
#	156925
#	170146
#	181829
#	198524
#	215488
#	230451
#	242556
#
# Disc length: 3404
#
# Revision: 2
# Processed by: cddbd v1.5.1PL0 Copyright (c) Steve Scherf et al.
# Submitted via: dBpowerAMP V4.0
# Normalized: r0:TDELIM( - ),TSWAP
#
DISCID=e60d4a11
DTITLE=Various Artist - Country Love Songs
DYEAR=1900
DGENRE=Country
TTITLE0=Willie Nelson - 1.Always On My Mind
TTITLE1=Mary Chapin Carpenter - 2.Passionate Kisses
TTITLE2=Billy Ray Cirus - 3.She's Not Crying Any More
TTITLE3=Dwight Yoakam - 4.Ain't That Lonely Yet
TTITLE4=Randy Travis - 5.Forever and Ever ,Amen
TTITLE5=Tanya Tucker - Two Sparrows In A Hurricane
TTITLE6=Rosemary Rae and Graeme Connors - 7.Slowly But Surely
TTITLE7=Dolly Parton - 8.Romeo
TTITLE8=Alabama - 9.When We Make Love
TTITLE9=The Wheel - 10.There Goes My Heart Again
TTITLE10=Charley  Pride - 11.Mountain Of Love
TTITLE11=Dead Ringer Band - 12.I Want To See You So Bad
TTITLE12=Jane Saunders - 13.Don't Be A Stranger To Your Heart
TTITLE13=Daniel O'Donnell and Mary Duff - 14.Secret Love
TTITLE14=Anne Kirkpatrick - 15.Game Of Love
TTITLE15=John Denver - 16.Perhaps Love
TTITLE16=Bellamy Bros. - 17.Let Your Love Flow
EXTD=
EXTT0=
EXTT1=
EXTT2=
EXTT3=
EXTT4=
EXTT5=
EXTT6=
EXTT7=
EXTT8=
EXTT9=
EXTT10=
EXTT11=
EXTT12=
EXTT13=
EXTT14=
EXTT15=
EXTT16=
PLAYORDER=
